<svg width="29" height="24" viewBox="0 0 29 24" fill="none" xmlns="http://www.w3.org/2000/svg">
<path d="M15 6.6875H17V12.3125L21.6875 15.125L20.6875 16.75L15 13.3125V6.6875ZM7.8125 3.5C10.1875 1.16667 13.0208 0 16.3125 0C19.6042 0 22.4167 1.16667 24.75 3.5C27.125 5.83333 28.3125 8.66667 28.3125 12C28.3125 15.3333 27.125 18.1667 24.75 20.5C22.4167 22.8333 19.6042 24 16.3125 24C14.9375 24 13.4167 23.6667 11.75 23C10.125 22.2917 8.83333 21.4583 7.875 20.5L9.75 18.5625C11.5833 20.3958 13.7708 21.3125 16.3125 21.3125C18.8958 21.3125 21.1042 20.4167 22.9375 18.625C24.7708 16.7917 25.6875 14.5833 25.6875 12C25.6875 9.41667 24.7708 7.22917 22.9375 5.4375C21.1042 3.60417 18.8958 2.6875 16.3125 2.6875C13.7292 2.6875 11.5208 3.60417 9.6875 5.4375C7.89583 7.22917 7 9.41667 7 12H11L5.625 17.375L5.5 17.1875L0.3125 12H4.3125C4.3125 8.66667 5.47917 5.83333 7.8125 3.5Z" fill="#07468C"/>
</svg>
