<svg width="31" height="22" viewBox="0 0 31 22" fill="none" xmlns="http://www.w3.org/2000/svg">
<path d="M26.3125 17C25.7708 17 25.2917 16.8125 24.875 16.4375C24.5 16.0208 24.3125 15.5417 24.3125 15V11.6875C24.3125 11.1042 24.5 10.625 24.875 10.25C25.2917 9.875 25.7708 9.6875 26.3125 9.6875C26.8958 9.6875 27.375 9.875 27.75 10.25C28.125 10.625 28.3125 11.1042 28.3125 11.6875V15C28.3125 15.5417 28.125 16.0208 27.75 16.4375C27.375 16.8125 26.8958 17 26.3125 17ZM25.6875 21.6875H27C27 21.6875 27 21.5833 27 21.375C27 21.1667 27 20.9375 27 20.6875C27 20.3958 27 20.1458 27 19.9375C27 19.7292 27 19.625 27 19.625C27.75 19.5 28.4167 19.2292 29 18.8125C29.625 18.3542 30.1042 17.8125 30.4375 17.1875C30.8125 16.5208 31 15.7917 31 15H29.6875C29.6875 15.9167 29.3542 16.7083 28.6875 17.375C28.0208 18 27.2292 18.3125 26.3125 18.3125C25.3958 18.3125 24.6042 18 23.9375 17.375C23.3125 16.7083 23 15.9167 23 15H21.6875C21.6875 15.7917 21.8542 16.5208 22.1875 17.1875C22.5625 17.8125 23.0417 18.3542 23.625 18.8125C24.25 19.2292 24.9375 19.5 25.6875 19.625C25.6875 19.625 25.6875 19.7292 25.6875 19.9375C25.6875 20.1458 25.6875 20.3958 25.6875 20.6875C25.6875 20.9375 25.6875 21.1667 25.6875 21.375C25.6875 21.5833 25.6875 21.6875 25.6875 21.6875ZM11 11C10 11 9.10417 10.7708 8.3125 10.3125C7.52083 9.8125 6.875 9.16667 6.375 8.375C5.91667 7.54167 5.6875 6.64583 5.6875 5.6875C5.6875 4.6875 5.91667 3.79167 6.375 3C6.875 2.16667 7.52083 1.52083 8.3125 1.0625C9.10417 0.5625 10 0.3125 11 0.3125C11.625 0.3125 12.2292 0.416667 12.8125 0.625C12.2292 1.33333 11.7708 2.125 11.4375 3C11.1458 3.83333 11 4.72917 11 5.6875C11 6.64583 11.1458 7.5625 11.4375 8.4375C11.7708 9.27083 12.2292 10.0208 12.8125 10.6875C12.2292 10.8958 11.625 11 11 11ZM8.5 12.5C7.625 13.125 6.9375 13.9167 6.4375 14.875C5.9375 15.8333 5.6875 16.8542 5.6875 17.9375V21.6875H0.3125V17.9375C0.3125 17.1875 0.5 16.5 0.875 15.875C1.29167 15.25 1.83333 14.7708 2.5 14.4375C3.33333 13.9792 4.25 13.5833 5.25 13.25C6.25 12.9167 7.33333 12.6667 8.5 12.5ZM13.6875 5.6875C13.6875 4.6875 13.9167 3.79167 14.375 3C14.875 2.16667 15.5208 1.52083 16.3125 1.0625C17.1042 0.5625 18 0.3125 19 0.3125C20 0.3125 20.8958 0.5625 21.6875 1.0625C22.4792 1.52083 23.1042 2.16667 23.5625 3C24.0625 3.79167 24.3125 4.6875 24.3125 5.6875C24.3125 6.64583 24.0625 7.54167 23.5625 8.375C23.1042 9.16667 22.4792 9.8125 21.6875 10.3125C20.8958 10.7708 20 11 19 11C18 11 17.1042 10.7708 16.3125 10.3125C15.5208 9.8125 14.875 9.16667 14.375 8.375C13.9167 7.54167 13.6875 6.64583 13.6875 5.6875ZM23.4375 21.6875C22.3125 21.1458 21.3958 20.3333 20.6875 19.25C20.0208 18.1667 19.6875 16.9792 19.6875 15.6875C19.6875 14.4792 19.9583 13.375 20.5 12.375C20.25 12.375 20 12.375 19.75 12.375C19.5 12.3333 19.25 12.3125 19 12.3125C17.3333 12.3125 15.7708 12.5208 14.3125 12.9375C12.8958 13.3542 11.625 13.8542 10.5 14.4375C9.83333 14.7708 9.29167 15.25 8.875 15.875C8.5 16.5 8.3125 17.1875 8.3125 17.9375V21.6875H23.4375Z" fill="#004D4D"/>
</svg>
