<svg width="146" height="78" viewBox="0 0 146 78" fill="none" xmlns="http://www.w3.org/2000/svg">
<path d="M41.4688 13.5V59H30.5312L14.4375 30.6875V59H3.46875V13.5H14.4375L30.5312 41.8125V13.5H41.4688ZM55.7812 13.5L64.1562 33.25L72.5625 13.5H84.375L69.75 42.6562V59H58.5938V42.6562L43.9375 13.5H55.7812ZM125.281 35.3438V37.1875C125.281 40.6667 124.792 43.7917 123.812 46.5625C122.854 49.3125 121.49 51.6667 119.719 53.625C117.948 55.5625 115.854 57.0521 113.438 58.0938C111.021 59.1146 108.354 59.625 105.438 59.625C102.5 59.625 99.8125 59.1146 97.375 58.0938C94.9583 57.0521 92.8542 55.5625 91.0625 53.625C89.2917 51.6667 87.9167 49.3125 86.9375 46.5625C85.9792 43.7917 85.5 40.6667 85.5 37.1875V35.3438C85.5 31.8646 85.9792 28.7396 86.9375 25.9688C87.9167 23.1979 89.2812 20.8438 91.0312 18.9062C92.8021 16.9479 94.8958 15.4583 97.3125 14.4375C99.75 13.3958 102.438 12.875 105.375 12.875C108.292 12.875 110.958 13.3958 113.375 14.4375C115.812 15.4583 117.917 16.9479 119.688 18.9062C121.458 20.8438 122.833 23.1979 123.812 25.9688C124.792 28.7396 125.281 31.8646 125.281 35.3438ZM114.156 37.1875V35.2812C114.156 33.0312 113.958 31.0521 113.562 29.3438C113.188 27.6146 112.625 26.1667 111.875 25C111.125 23.8333 110.198 22.9583 109.094 22.375C108.01 21.7708 106.771 21.4688 105.375 21.4688C103.917 21.4688 102.646 21.7708 101.562 22.375C100.479 22.9583 99.5729 23.8333 98.8438 25C98.1146 26.1667 97.5625 27.6146 97.1875 29.3438C96.8333 31.0521 96.6562 33.0312 96.6562 35.2812V37.1875C96.6562 39.4167 96.8333 41.3958 97.1875 43.125C97.5625 44.8333 98.1146 46.2812 98.8438 47.4688C99.5938 48.6562 100.51 49.5521 101.594 50.1562C102.698 50.7604 103.979 51.0625 105.438 51.0625C106.833 51.0625 108.073 50.7604 109.156 50.1562C110.24 49.5521 111.146 48.6562 111.875 47.4688C112.625 46.2812 113.188 44.8333 113.562 43.125C113.958 41.3958 114.156 39.4167 114.156 37.1875Z" fill="#268080"/>
<path d="M113.07 72.3955C113.07 72.2178 113.043 72.0583 112.988 71.917C112.938 71.7712 112.842 71.639 112.701 71.5205C112.56 71.3975 112.362 71.2767 112.106 71.1582C111.851 71.0397 111.521 70.9167 111.115 70.7891C110.664 70.6432 110.236 70.4792 109.83 70.2969C109.429 70.1146 109.074 69.9027 108.764 69.6611C108.458 69.415 108.217 69.1302 108.039 68.8066C107.866 68.4831 107.779 68.1071 107.779 67.6787C107.779 67.264 107.87 66.888 108.053 66.5508C108.235 66.209 108.49 65.9173 108.818 65.6758C109.146 65.4297 109.534 65.2406 109.98 65.1084C110.432 64.9762 110.926 64.9102 111.464 64.9102C112.198 64.9102 112.838 65.0423 113.385 65.3066C113.932 65.571 114.355 65.9333 114.656 66.3936C114.962 66.8538 115.114 67.3802 115.114 67.9727H113.077C113.077 67.681 113.016 67.4258 112.893 67.207C112.774 66.9837 112.592 66.8083 112.346 66.6807C112.104 66.5531 111.799 66.4893 111.43 66.4893C111.074 66.4893 110.778 66.5439 110.541 66.6533C110.304 66.7581 110.126 66.9017 110.008 67.084C109.889 67.2617 109.83 67.4622 109.83 67.6855C109.83 67.8542 109.871 68.0068 109.953 68.1436C110.04 68.2803 110.167 68.4079 110.336 68.5264C110.505 68.6449 110.712 68.7565 110.958 68.8613C111.204 68.9661 111.489 69.0687 111.812 69.1689C112.355 69.333 112.831 69.5176 113.241 69.7227C113.656 69.9277 114.002 70.1579 114.28 70.4131C114.558 70.6683 114.768 70.9577 114.909 71.2812C115.05 71.6048 115.121 71.9717 115.121 72.3818C115.121 72.8148 115.037 73.2021 114.868 73.5439C114.7 73.8857 114.456 74.1751 114.137 74.4121C113.818 74.6491 113.437 74.8291 112.995 74.9521C112.553 75.0752 112.059 75.1367 111.512 75.1367C111.02 75.1367 110.534 75.0729 110.056 74.9453C109.577 74.8132 109.142 74.6149 108.75 74.3506C108.363 74.0863 108.053 73.749 107.82 73.3389C107.588 72.9287 107.472 72.4434 107.472 71.8828H109.529C109.529 72.1927 109.577 72.4548 109.673 72.6689C109.769 72.8831 109.903 73.0563 110.076 73.1885C110.254 73.3206 110.464 73.4163 110.705 73.4756C110.951 73.5348 111.22 73.5645 111.512 73.5645C111.867 73.5645 112.159 73.5143 112.387 73.4141C112.619 73.3138 112.79 73.1748 112.899 72.9971C113.013 72.8193 113.07 72.6188 113.07 72.3955ZM118.361 69.1348V75H116.386V67.6035H118.238L118.361 69.1348ZM118.088 71.042H117.541C117.541 70.527 117.603 70.0531 117.726 69.6201C117.853 69.1826 118.038 68.8044 118.279 68.4854C118.525 68.1618 118.828 67.9111 119.188 67.7334C119.549 67.5557 119.965 67.4668 120.439 67.4668C120.768 67.4668 121.068 67.5169 121.342 67.6172C121.615 67.7129 121.85 67.8656 122.046 68.0752C122.246 68.2803 122.401 68.5492 122.511 68.8818C122.62 69.21 122.675 69.6042 122.675 70.0645V75H120.706V70.2832C120.706 69.946 120.66 69.6862 120.569 69.5039C120.478 69.3216 120.348 69.194 120.18 69.1211C120.016 69.0482 119.817 69.0117 119.585 69.0117C119.33 69.0117 119.106 69.0641 118.915 69.1689C118.728 69.2738 118.573 69.4196 118.45 69.6064C118.327 69.7887 118.236 70.0029 118.177 70.249C118.118 70.4951 118.088 70.7594 118.088 71.042ZM122.49 70.8164L121.786 70.9053C121.786 70.4222 121.845 69.9733 121.964 69.5586C122.087 69.1439 122.267 68.7793 122.504 68.4648C122.745 68.1504 123.044 67.9066 123.399 67.7334C123.755 67.5557 124.165 67.4668 124.63 67.4668C124.985 67.4668 125.309 67.5192 125.601 67.624C125.892 67.7243 126.141 67.8861 126.346 68.1094C126.555 68.3281 126.715 68.6152 126.824 68.9707C126.938 69.3262 126.995 69.7614 126.995 70.2764V75H125.02V70.2764C125.02 69.9346 124.974 69.6748 124.883 69.4971C124.796 69.3148 124.669 69.1895 124.5 69.1211C124.336 69.0482 124.14 69.0117 123.912 69.0117C123.675 69.0117 123.468 69.0596 123.29 69.1553C123.112 69.2464 122.964 69.374 122.846 69.5381C122.727 69.7021 122.638 69.8936 122.579 70.1123C122.52 70.3265 122.49 70.5612 122.49 70.8164ZM132.512 73.332V70.0371C132.512 69.8001 132.473 69.5973 132.396 69.4287C132.318 69.2555 132.197 69.1211 132.033 69.0254C131.874 68.9297 131.666 68.8818 131.411 68.8818C131.192 68.8818 131.003 68.9206 130.844 68.998C130.684 69.071 130.561 69.1781 130.475 69.3193C130.388 69.4561 130.345 69.6178 130.345 69.8047H128.376C128.376 69.4902 128.449 69.1917 128.595 68.9092C128.741 68.6266 128.952 68.3783 129.23 68.1641C129.508 67.9453 129.839 67.7744 130.222 67.6514C130.609 67.5283 131.042 67.4668 131.521 67.4668C132.095 67.4668 132.605 67.5625 133.052 67.7539C133.498 67.9453 133.849 68.2324 134.104 68.6152C134.364 68.998 134.494 69.4766 134.494 70.0508V73.2158C134.494 73.6214 134.519 73.9541 134.569 74.2139C134.619 74.4691 134.692 74.6924 134.788 74.8838V75H132.799C132.703 74.7995 132.63 74.5488 132.58 74.248C132.535 73.9427 132.512 73.6374 132.512 73.332ZM132.771 70.4951L132.785 71.6094H131.685C131.425 71.6094 131.199 71.639 131.008 71.6982C130.816 71.7575 130.659 71.8418 130.536 71.9512C130.413 72.056 130.322 72.179 130.263 72.3203C130.208 72.4616 130.181 72.6165 130.181 72.7852C130.181 72.9538 130.219 73.1064 130.297 73.2432C130.374 73.3753 130.486 73.4801 130.632 73.5576C130.778 73.6305 130.949 73.667 131.145 73.667C131.441 73.667 131.698 73.6077 131.917 73.4893C132.136 73.3708 132.304 73.2249 132.423 73.0518C132.546 72.8786 132.61 72.7145 132.614 72.5596L133.134 73.3936C133.061 73.5804 132.961 73.7741 132.833 73.9746C132.71 74.1751 132.553 74.3643 132.361 74.542C132.17 74.7152 131.94 74.8587 131.671 74.9727C131.402 75.082 131.083 75.1367 130.714 75.1367C130.244 75.1367 129.818 75.0433 129.436 74.8564C129.057 74.665 128.757 74.403 128.533 74.0703C128.314 73.7331 128.205 73.3503 128.205 72.9219C128.205 72.5345 128.278 72.1904 128.424 71.8896C128.57 71.5889 128.784 71.3359 129.066 71.1309C129.354 70.9212 129.711 70.764 130.14 70.6592C130.568 70.5498 131.065 70.4951 131.63 70.4951H132.771ZM137.98 69.2168V75H136.012V67.6035H137.864L137.98 69.2168ZM140.209 67.5557L140.175 69.3809C140.079 69.3672 139.963 69.3558 139.826 69.3467C139.694 69.333 139.573 69.3262 139.464 69.3262C139.186 69.3262 138.944 69.3626 138.739 69.4355C138.539 69.5039 138.37 69.6064 138.233 69.7432C138.101 69.8799 138.001 70.0462 137.933 70.2422C137.869 70.4382 137.832 70.6615 137.823 70.9121L137.427 70.7891C137.427 70.3105 137.475 69.8708 137.57 69.4697C137.666 69.0641 137.805 68.7109 137.987 68.4102C138.174 68.1094 138.402 67.877 138.671 67.7129C138.94 67.5488 139.247 67.4668 139.594 67.4668C139.703 67.4668 139.815 67.4759 139.929 67.4941C140.043 67.5078 140.136 67.5283 140.209 67.5557ZM145.104 67.6035V68.998H140.797V67.6035H145.104ZM141.863 65.7783H143.832V72.7715C143.832 72.9857 143.859 73.1497 143.914 73.2637C143.973 73.3776 144.06 73.4574 144.174 73.5029C144.288 73.5439 144.431 73.5645 144.604 73.5645C144.728 73.5645 144.837 73.5599 144.933 73.5508C145.033 73.5371 145.117 73.5234 145.186 73.5098L145.192 74.959C145.024 75.0137 144.841 75.057 144.646 75.0889C144.45 75.1208 144.233 75.1367 143.996 75.1367C143.563 75.1367 143.185 75.0661 142.861 74.9248C142.542 74.779 142.296 74.5465 142.123 74.2275C141.95 73.9085 141.863 73.4893 141.863 72.9697V65.7783Z" fill="#07468C"/>
</svg>
