<svg width="28" height="28" viewBox="0 0 28 28" fill="none" xmlns="http://www.w3.org/2000/svg">
<path d="M14 0.6875C12.1667 0.6875 10.4375 1.04167 8.8125 1.75C7.22917 2.41667 5.8125 3.375 4.5625 4.625C3.35417 5.83333 2.39583 7.25 1.6875 8.875C1.02083 10.4583 0.6875 12.1667 0.6875 14C0.6875 15.8333 1.02083 17.5625 1.6875 19.1875C2.39583 20.7708 3.35417 22.1875 4.5625 23.4375C5.8125 24.6458 7.22917 25.6042 8.8125 26.3125C10.4375 26.9792 12.1667 27.3125 14 27.3125C15.8333 27.3125 17.5417 26.9792 19.125 26.3125C20.75 25.6042 22.1667 24.6458 23.375 23.4375C24.625 22.1875 25.5833 20.7708 26.25 19.1875C26.9583 17.5625 27.3125 15.8333 27.3125 14C27.3125 12.1667 26.9583 10.4583 26.25 8.875C25.5833 7.25 24.625 5.83333 23.375 4.625C22.1667 3.375 20.75 2.41667 19.125 1.75C17.5417 1.04167 15.8333 0.6875 14 0.6875ZM10.6875 20V8L20 14L10.6875 20Z" fill="#07468C"/>
</svg>
